HIERARCHY
ROOT Hips
{
 OFFSET 0.000000 0.000000 0.000000
 CHANNELS 6 Xposition Yposition Zposition Yrotation Xrotation Zrotation
 JOINT Chest
 {
  OFFSET 0.000000 9.588913 -0.003946
  CHANNELS 3 Yrotation Xrotation Zrotation
  JOINT Chest2
  {
   OFFSET 0.000000 9.541882 0.008053
   CHANNELS 3 Yrotation Xrotation Zrotation
   JOINT Chest3
   {
    OFFSET 0.000000 9.501360 0.000000
    CHANNELS 3 Yrotation Xrotation Zrotation
    JOINT Chest4
    {
     OFFSET 0.000000 9.491660 0.000000
     CHANNELS 3 Yrotation Xrotation Zrotation
     JOINT Neck
     {
      OFFSET 0.000000 14.331917 0.000000
      CHANNELS 3 Yrotation Xrotation Zrotation
      JOINT Head
      {
       OFFSET 0.000000 8.884799 0.017034
       CHANNELS 3 Yrotation Xrotation Zrotation
       End Site
       {
        OFFSET 0.000000 16.896195 0.008993
       }
      }
     }
     JOINT RightCollar
     {
      OFFSET -2.923010 9.499495 0.000000
      CHANNELS 3 Yrotation Xrotation Zrotation
      JOINT RightShoulder
      {
       OFFSET -13.795216 0.000000 0.000000
       CHANNELS 3 Yrotation Xrotation Zrotation
       JOINT RightElbow
       {
        OFFSET -30.272209 0.000000 0.000000
        CHANNELS 3 Yrotation Xrotation Zrotation
        JOINT RightWrist
        {
         OFFSET -24.478199 0.000000 0.000000
         CHANNELS 3 Yrotation Xrotation Zrotation
         End Site
         {
          OFFSET -18.090752 0.000000 0.000000
         }
        }
       }
      }
     }
     JOINT LeftCollar
     {
      OFFSET 2.923010 9.499495 0.000000
      CHANNELS 3 Yrotation Xrotation Zrotation
      JOINT LeftShoulder
      {
       OFFSET 13.795216 0.000000 0.000000
       CHANNELS 3 Yrotation Xrotation Zrotation
       JOINT LeftElbow
       {
        OFFSET 30.272209 0.000000 0.000000
        CHANNELS 3 Yrotation Xrotation Zrotation
        JOINT LeftWrist
        {
         OFFSET 24.478199 0.000000 0.000000
         CHANNELS 3 Yrotation Xrotation Zrotation
         End Site
         {
          OFFSET 18.090752 0.000000 0.000000
         }
        }
       }
      }
     }
    }
   }
  }
 }
 JOINT RightHip
 {
  OFFSET -7.826875 0.019532 0.001973
  CHANNELS 3 Yrotation Xrotation Zrotation
  JOINT RightKnee
  {
   OFFSET 0.000000 -40.546152 -0.001885
   CHANNELS 3 Yrotation Xrotation Zrotation
   JOINT RightAnkle
   {
    OFFSET 0.000000 -39.417092 -0.003189
    CHANNELS 3 Yrotation Xrotation Zrotation
    JOINT RightToe
    {
     OFFSET 0.000000 -7.579396 17.243563
     CHANNELS 3 Yrotation Xrotation Zrotation
     End Site
     {
      OFFSET 0.000000 -1.500329 6.694466
     }
    }
   }
  }
 }
 JOINT LeftHip
 {
  OFFSET 7.826875 0.019532 0.001973
  CHANNELS 3 Yrotation Xrotation Zrotation
  JOINT LeftKnee
  {
   OFFSET 0.000000 -40.546152 -0.001885
   CHANNELS 3 Yrotation Xrotation Zrotation
   JOINT LeftAnkle
   {
    OFFSET 0.000000 -39.417092 -0.003189
    CHANNELS 3 Yrotation Xrotation Zrotation
    JOINT LeftToe
    {
     OFFSET 0.000000 -7.579396 17.243563
     CHANNELS 3 Yrotation Xrotation Zrotation
     End Site
     {
      OFFSET 0.000000 -1.500329 6.694466
     }
    }
   }
  }
 }
}
MOTION
Frames: 5
Frame Time: 0.008333
-6.708014 87.850892 34.000295 12.935516 12.910956 -2.143120 6.009752 14.838768 1.126349 3.297466 8.435823 0.532571 4.145579 10.538844 0.744579 3.297466 8.435823 0.532571 -14.958958 12.924855 6.904848 -30.773985 -8.393476 18.570898 6.881806 -11.439566 -3.522050 10.002968 -31.085953 59.987181 105.161085 16.534732 -2.382423 14.039469 -1.073405 -23.305977 -3.952678 -12.572349 12.283275 28.417394 -37.384446 -45.470513 -122.731558 5.172869 9.506459 -2.298460 -9.350840 28.428577 -20.831758 -0.391829 4.645729 -7.452095 4.899952 -1.852914 -4.401430 -11.100928 7.022142 0.132980 -0.202779 0.004082 -22.411637 -28.555336 8.568602 -7.286371 26.448640 -3.358208 0.630770 -6.394013 0.150481 -0.331723 0.100167 -0.171600
-6.674222 87.845639 34.013232 13.024415 12.982274 -2.156765 6.027672 14.843882 1.154462 3.301310 8.433134 0.545245 4.150680 10.535359 0.760527 3.301310 8.433134 0.545245 -14.975062 12.912900 6.960867 -30.826098 -8.392089 18.682520 6.875495 -11.418142 -3.514078 9.901825 -31.083420 59.962472 105.371831 16.592338 -2.383489 14.015607 -1.072491 -23.250532 -3.943726 -12.561266 12.300772 28.565719 -37.382593 -45.559090 -122.961721 5.001093 9.430501 -2.434644 -9.409285 28.519338 -20.791926 -0.424328 4.648899 -7.413592 4.875302 -1.850510 -4.377168 -11.081231 7.052318 0.132514 -0.195713 0.008306 -22.483833 -28.631879 8.593625 -7.310959 26.497003 -3.376661 0.620080 -6.434458 0.181593 -0.329232 0.112023 -0.159668
-6.639737 87.839979 34.026424 13.113624 13.048901 -2.164939 6.040653 14.849237 1.178318 3.303025 8.430417 0.556532 4.153081 10.531856 0.774685 3.303025 8.430416 0.556532 -14.986475 12.903239 7.015421 -30.868375 -8.388372 18.789241 6.866442 -11.399402 -3.503180 9.817036 -31.082811 59.938271 105.565740 16.655324 -2.378888 13.998762 -1.064318 -23.211850 -3.934571 -12.549808 12.318934 28.693960 -37.380795 -45.632414 -123.177410 4.835007 9.360984 -2.562833 -9.455069 28.601230 -20.765523 -0.459698 4.647817 -7.373270 4.863237 -1.852762 -4.348457 -11.071724 7.082162 0.132337 -0.188648 0.013808 -22.558217 -28.700841 8.618607 -7.327159 26.537024 -3.400611 0.603791 -6.474417 0.210334 -0.326829 0.124817 -0.145546
-6.604677 87.834163 34.040593 13.209124 13.110018 -2.167174 6.046706 14.855918 1.199608 3.300865 8.427820 0.566800 4.150602 10.528521 0.787477 3.300865 8.427819 0.566799 -14.993873 12.894153 7.068115 -30.902423 -8.385360 18.891093 6.860128 -11.382305 -3.491854 9.747947 -31.081384 59.916777 105.741503 16.731902 -2.375317 13.991811 -1.052668 -23.192928 -3.922887 -12.539951 12.337075 28.806797 -37.374537 -45.689070 -123.372265 4.696137 9.307982 -2.676966 -9.491358 28.672490 -20.758813 -0.495144 4.641797 -7.329501 4.863052 -1.857377 -4.316148 -11.072023 7.110714 0.131892 -0.182844 0.020453 -22.634577 -28.763343 8.638813 -7.334140 26.572394 -3.423330 0.579102 -6.513607 0.233926 -0.324274 0.136731 -0.129272
-6.568884 87.828593 34.055370 13.313375 13.170155 -2.161716 6.043844 14.861863 1.217371 3.294243 8.424532 0.576419 4.142511 10.524338 0.799346 3.294243 8.424531 0.576419 -14.998271 12.884433 7.117722 -30.930051 -8.385337 18.986530 6.858939 -11.363848 -3.481536 9.695684 -31.078301 59.896717 105.898077 16.819078 -2.377513 13.994925 -1.039767 -23.191126 -3.903380 -12.532996 12.354368 28.901558 -37.359337 -45.728585 -123.542141 4.599006 9.276889 -2.773712 -9.515886 28.739398 -20.772857 -0.532947 4.630399 -7.284407 4.869883 -1.860582 -4.282727 -11.079647 7.136280 0.131106 -0.178049 0.027782 -22.705024 -28.825836 8.649941 -7.336208 26.602347 -3.444658 0.545421 -6.548182 0.253822 -0.323692 0.145724 -0.111435
